<svg id="Layer_1" data-name="Layer 1" xmlns="http://www.w3.org/2000/svg" viewBox="0 0 960 687"><title>TX-consumption-sector-v2</title><line x1="34" y1="137.5" x2="927" y2="137.5" fill="none" stroke="#ccc" stroke-miterlimit="10" stroke-width="3"/><polygon points="858.26 248.07 854.29 245.48 853.48 245.16 845.68 244.58 839.91 240.96 836.44 239.84 833.49 237.93 829.72 237.52 828.81 233.74 825.47 226.89 823.66 225.08 823.08 219.98 821.8 218.38 822.12 213.76 822.1 213.65 820.92 212.54 819.74 211.55 815.42 206.91 815.13 205.46 809.41 198.82 808.64 196.19 803.48 183.7 803.26 182.74 801.91 180.76 798.82 177.93 796.64 175.24 795.7 174.67 794.42 174.03 794.35 173.86 793.74 173.86 792.58 171.03 790.95 170.06 789.8 170.56 785.38 169.26 784.72 168.82 780.11 168.27 778.88 167.53 778.19 168.91 775.82 168.91 773.9 168.5 772.76 170.01 769.16 178.46 767.71 179.55 765.41 182.16 762.74 183.17 759.63 182.73 750.99 177.46 738.92 168.7 735.84 163.64 735.1 160.58 735.36 154.99 733.91 152.85 732.6 151.16 733.04 149.06 732.43 147.75 724.93 141.88 716.05 131.04 712.69 128.87 710.71 125.42 710.31 123.74 706.83 121.59 706.83 120.57 705.51 118.23 706.22 117.28 705.09 115.96 707.83 113.2 765.68 118.86 772.94 30.2 776.15 30.2 826.11 32.96 824.61 71.29 824.83 71.33 826.45 72.59 828.41 75.26 830.17 75.1 831.98 73.59 835.95 75.69 837.13 78.06 837.13 78.58 837.31 78.92 840.85 79.39 842.15 80 845.64 79.31 846.84 81.22 847.36 80.74 854.12 81.22 854.73 83.04 855.61 83.87 856.59 84.52 860.01 83.82 863.85 86.44 865.27 85.67 868.75 85.67 868.8 85.79 870.74 84.83 874 84.83 874.21 85.78 874.25 85.71 877.75 86.3 879 87.55 879.89 87.97 880.88 88.69 882.15 87.7 884 86.84 887.57 86.46 890.3 85.49 891.84 85.11 893.85 85.11 897 85.62 898.57 85.24 899.99 84.53 908.55 88.86 910.8 89.28 911.21 89.96 911.55 89.96 913.64 91.72 915.72 90.98 920.65 92.15 920.98 104.81 921.25 123.82 921.55 124.36 923.92 126.35 926.2 130.77 925.45 132.42 926.25 133.04 927.42 135.39 927.89 136.78 927.89 137.36 927.94 137.41 929.49 140.04 930.5 143.86 930.5 146.44 929.57 150.38 928.83 152.97 927.64 154.15 927.32 155.42 927.32 156.73 927.05 157.57 927.05 157.91 928.41 159.95 926.5 165.98 925.15 167.53 924.79 168.25 924.9 168.4 927.22 170.15 924.17 173.23 919.65 173.54 910.84 177.43 909.94 175.94 908.28 176.07 908.69 176.64 907.49 179.04 903.09 182.56 902.5 185.3 891.24 192.7 885.34 194.43 884.39 195.24 881.62 195.24 881.67 195.33 881.67 198.02 879.43 199.14 874.76 200.1 874.76 202.46 871.81 203.65 870.59 203.65 869.85 207.46 866.51 209.83 866.6 209.88 864.22 217.66 863.14 218.38 863.18 218.41 863.18 221.71 861.53 226.82 862.53 229.88 864.65 238.62 866.77 241.08 868.04 241.71 868.04 244.78 866.67 247.52 864.53 247.16 862.17 249.85 858.26 248.07" fill="#fff" fill-rule="evenodd"/><path d="M776.09,32.7l47.43,2.62L822,73.41l1.77.28.84.66L827,77.52l1,.28,3.17-.28,1.13-.93,1.77.93.56,1.12v.56l.93,1.78.28.28,4.3.56,1.77.84h.84l.28-.28,1.4-.28.94,1.49,1.68.84,1.21-1.12,4,.28.28.84,1.49,1.4.56.38v2l2.9.74.56-2.14,1.4-.29,4.1,2.81h.28l2.06-1.12H867l.28.74-.28,1.5.56,1.12L868.8,91l-.37-1.12,1.21-1.68,1.69-.84H872l.28,1.3,1.68.66h.93l.56-.84,1.12.18.28.28v.38l1.78.84,2.33,1.68,2.52-2,1.22-.56,3.45-.38,2.9-1,1.12-.27h1.49l3.46.56,2.33-.56.56-.28,7.75,3.92,1.49.28.57.93h.83l2.34,2h.56l2.33-.84,2.34.56.28,10.74.28,19.61.84,1.49,2.33,2,1.5,2.9-.94,2,.56.84,1.22.94.84,1.68.28.84v1.21l.56.56,1.21,2,.84,3.18v2l-.84,3.55-.56,2-1.21,1.21-.57,2.24v1.22l-.27.84v1.49l1.12,1.68-1.4,4.39-1.22,1.4-.56,1.12-.56.66.56,1.4.56.84.38.27-.38.38-4,.28-7.19,3.18-.56-.94-3.55.28-.56-.84.56-2.34-.56-.27L904,171.64l-.28,2.33,2.06,2.9-.28.56-4.67,3.73-.56,2.62-10.09,6.63-6.06,1.77-.66.56h-.56l-.56-.93.28-.56V191l-1.4.28-.65.56L876.83,193v.84l2.06,1.5.28.56v.56l-.56.28-4.11.84h-.56l-.56-.28h-.56l-.56.93v2.52l-.93.38h-.85l-.84-.38-.56.65-.93-.27h-.56l-.56,1.11,1.12.85-.56,2.89-2.89,2.05L863,206.84l-1.22,1.49.56,2.34,1.21.56-1.49,4.85-2.61,1.78-.28.28v.28l.28.56h.37l.84.65v1.68l-1.77,5.51,1.21,3.74,2.24,9.24,1.78,2-.29.57,1.69.83v.94l-.28.56-1.69-.28-2.05,2.34-2-.94-4-2.62-1.4-.56-7.56-.55L841,238.68l-3.45-1.12-3.18-2.05-2.61-.29-.57-2.33-3.64-7.47L826,223.93l-.56-5-1.12-1.4.28-4-.28-1.21-1.77-1.68-1.13-.94-3.73-4-.28-1.4-5.79-6.72-.65-2.24-5.14-12.42-.28-1.22-1.77-2.61-3.18-2.9-2.33-2.89-1.4-.84-.56-.28-.37-.84h-.57l-.84-2.05-3.45-2.06-1.49.66-3.18-.94-.84-.56-4.67-.56-1.4-.84-1.4-.65-.93.93-.56,1.12h-.56l-2.62-.56-1.12.56-1.77,2.34-3.46,8.12-1.12.84L764,180l-1.49.56-2-.28-8.12-4.94L740.79,167l-2.61-4.29-.56-2.34.28-6.07-2-2.89-.66-.84.38-1.78-.66-1.4-.56-1.21-7.75-6.07-9-10.93-3.17-2.05-1.5-2.61-.56-2.34-3.17-2v-.28l-.84-1.49.84-1.12-.28-.56-.56-.65.28-.29L768,121.59l7.29-88.89h.84m.13-5h-5.58l-.38,4.59-6.87,83.83-54.14-5.29-2.36-.23-1.68,1.69-.28.28-3.24,3.27,1.33,1.54-.49.65,1.6,2.84.2.35V123l2.37,1.47,1.42.87.08.33.17.7.35.62,1.49,2.61.61,1.06,1,.66,2.52,1.63,8.47,10.32.35.43.43.34,6.8,5.32v0l0,.14-.48,2.26,1.42,1.83.56.72.94,1.38-.21,4.41,0,.71.16.68.56,2.34.19.77.41.67,2.61,4.29.52.86.81.59,11.58,8.4.17.12.17.11,8.12,4.94.88.54,1,.14,2,.28,1.27.19,1.2-.46,1.49-.56,1.16-.44.83-.93,1.72-1.95.71-.54,1.07-.8.52-1.24,3.21-7.54.11,0,.52.11h4.18l.31-.63.3,0,3.48.41.48.32.73.22,3.17.93,1.76.52.68-.3.14.33,1.27,3.11h1.43l.62.31.39.2.47.28,1.78,2.2.24.3.28.26,2.74,2.5.92,1.35.07.3.09.41.16.38,5,12.16.58,2,.3,1,.71.82,4.94,5.73,0,.12.28,1.38,1,1,3.73,4,.22.23.25.21,1,.83.29.27-.18,2.55-.13,2,1.21,1.52.22.28.4,3.51.2,1.73,1.23,1.24.9.9,3,6.23.43,1.8.83,3.43,3.5.38,1.43.15,2.18,1.41.55.35.62.21,2.87.93,5,3.12,1,.66,1.24.09,6.79.5.23.09,3.6,2.35.31.2.34.16,2.06.93,3.38,1.54,2.45-2.78.21-.25,2.59.43,1.65-3.3.28-.57.53-1v-5.21l-2.21-1.1-.41-.48-1-1.13L865,229.38l-.05-.19,0-.18-.72-2.19,1.28-4,.24-.75v-2.42l.67-.45.51-1.68,1.49-4.85.44-1.42,1.69-1.2,1.64-1.16.38-2,.18-1,.51-.2.93-.38,3.14-1.26v-2l2.35-.49.65-.13.59-.3.56-.28,2.76-1.38v-1.82h1.15l1.24-1.06,5-1.47.71-.21.63-.41L903,188l1.71-1.13.43-2,.19-.87,3.27-2.62.86-.68.17-.35.19.31,4-1.78,6.39-2.82,3.14-.22,1.88-.13,1.32-1.34L927,174l4-4.08-2.78-2.09.48-.55.31-1,1.4-4.39.73-2.29-1.33-2-.1-.15.09-.29v-1.4l.08-.3.23-.23.92-.92.36-1.25.56-2,0-.11,0-.11.84-3.55.13-.56v-3.2l-.17-.63-.84-3.17-.17-.67-.36-.6-1.07-1.83v-.26l-.26-.77-.28-.84-.11-.34-.16-.32-.84-1.68-.29-.57.53-1.16-1.11-2.15-1.49-2.9-.46-.89-.77-.65-1.41-1.18-.26-18.12v-.06L923.2,94l-.11-3.84-3.73-.89L917,88.72l-1.45-.34-1.4.5h0l-.3-.26-1.06-.89-.43-.71-2.2-.42-.79-.14-7.12-3.61L900,81.73l-2.26,1.13,0,0-.79.19-2.46-.4-.4-.06h-2.52l-.59.14-1.12.28-.24.06-.23.08L887,84l-2.87.3-.82.09-.74.35-1.22.56-.52.24-.08.06h0l-.28-.14-.1-.09-.28-.28L879,84l-1.57-.27-1.1-.18L876,82.33h-5.87l-1.06.52-.63.32h-3.82l-.65.35-1.7-1.17-1.75-1.18-2.06.41-1.36.28-.22-.21L856,78.84l-3.33-.24-4-.28-.67,0-1.1-1.76-3.39.67-1,.2-.2-.09-.71-.34-.78-.1-1.57-.21-.11-.23-.56-1.12-.72-1.45-1.43-.75-1.77-.94-3-1.56-2.22,1.85-.78-1.06-.41-.56-.55-.43-.55-.42,1.35-34.47.2-4.91-4.92-.27-47.43-2.62Z" fill="#fff"/><polygon points="921.93 167.91 922.49 167.25 923.05 166.13 924.27 164.73 925.67 160.34 924.55 158.66 924.55 157.17 924.82 156.33 924.82 155.11 925.39 152.87 926.6 151.66 927.16 149.7 928 146.15 928 144.19 927.16 141.01 925.95 138.96 925.39 138.4 925.39 137.19 925.11 136.35 924.27 134.67 923.05 133.73 922.49 132.89 923.43 130.84 921.93 127.94 919.6 125.98 918.76 124.49 918.48 104.88 918.2 94.14 915.86 93.58 913.53 94.42 912.97 94.42 910.63 92.46 909.79 92.46 909.23 91.53 907.74 91.25 899.99 87.33 899.43 87.61 897.1 88.17 893.64 87.61 892.15 87.61 891.03 87.89 888.13 88.91 884.68 89.28 883.46 89.85 880.94 91.81 878.61 90.13 876.83 89.28 876.83 88.91 876.55 88.63 875.43 88.45 874.87 89.28 873.94 89.28 872.26 88.63 871.98 87.33 871.33 87.33 869.64 88.17 868.43 89.85 868.8 90.97 867.59 91.53 867.03 90.41 867.31 88.91 867.03 88.17 865.91 88.17 863.86 89.28 863.57 89.28 859.47 86.48 858.07 86.77 857.51 88.91 854.61 88.17 854.61 86.21 854.05 85.83 852.56 84.43 852.28 83.59 848.26 83.31 847.05 84.43 845.37 83.59 844.43 82.1 843.03 82.38 842.75 82.66 841.91 82.66 840.14 81.82 835.85 81.25 835.56 80.98 834.63 79.2 834.63 78.64 834.07 77.52 832.3 76.59 831.17 77.52 828 77.8 826.97 77.52 824.64 74.35 823.8 73.69 822.03 73.41 823.52 35.32 776.09 32.7 775.25 32.7 767.96 121.59 708.76 115.8 708.49 116.08 709.05 116.74 709.33 117.3 708.49 118.42 709.33 119.91 709.33 120.19 712.5 122.15 713.06 124.49 714.56 127.1 717.73 129.16 726.69 140.08 734.45 146.15 735 147.37 735.66 148.76 735.28 150.54 735.94 151.38 737.9 154.27 737.62 160.34 738.18 162.68 740.79 166.97 752.37 175.38 760.49 180.32 762.46 180.6 763.95 180.04 766 177.71 767.12 176.87 770.58 168.75 772.35 166.41 773.47 165.85 776.09 166.41 776.65 166.41 777.21 165.29 778.14 164.36 779.54 165.01 780.94 165.85 785.61 166.41 786.45 166.97 789.63 167.91 791.12 167.25 794.58 169.31 795.41 171.36 795.98 171.36 796.35 172.2 796.91 172.48 798.31 173.32 800.64 176.22 803.82 179.11 805.59 181.72 805.87 182.94 811.01 195.35 811.66 197.6 817.45 204.32 817.73 205.72 821.47 209.74 822.59 210.67 824.36 212.35 824.64 213.56 824.36 217.58 825.48 218.98 826.04 223.93 827.53 225.42 831.17 232.89 831.74 235.22 834.35 235.5 837.53 237.56 840.98 238.68 846.49 242.13 854.05 242.69 855.45 243.25 859.47 245.87 861.52 246.81 863.57 244.47 865.26 244.75 865.54 244.19 865.54 243.25 863.86 242.42 864.14 241.85 862.36 239.8 860.12 230.56 858.91 226.82 860.68 221.31 860.68 219.63 859.84 218.98 859.47 218.98 859.19 218.42 859.19 218.14 859.47 217.86 862.08 216.08 863.57 211.23 862.36 210.67 861.8 208.33 863.01 206.84 864.7 208.05 867.59 206 868.15 203.1 867.03 202.26 867.59 201.15 868.15 201.15 869.08 201.42 869.64 200.77 870.49 201.15 871.33 201.15 872.26 200.77 872.26 200.21 872.26 198.25 872.82 197.32 873.38 197.32 873.94 197.6 874.5 197.6 878.61 196.76 879.17 196.48 879.17 195.92 878.89 195.35 876.83 193.86 876.83 193.02 880.57 191.81 881.22 191.25 882.62 190.97 882.62 191.25 882.34 191.81 882.9 192.74 883.46 192.74 884.12 192.18 890.18 190.41 900.27 183.78 900.83 181.16 905.5 177.43 905.78 176.87 903.72 173.97 904 171.64 907.18 170.15 907.74 170.43 907.18 172.76 907.74 173.6 911.29 173.32 911.85 174.25 919.04 171.08 923.05 170.8 923.43 170.43 923.05 170.15 922.49 169.31 921.93 167.91" fill="none" stroke="#66a0b9" stroke-miterlimit="10" stroke-width="2"/><path d="M231,262l35.78-11.63a37.62,37.62,0,1,1-47.41-24.15A35.65,35.65,0,0,1,231,224.38Z" fill="#f2f2f2"/><path d="M231,262V224.38a37,37,0,0,1,35.78,26Z" fill="#0096d7"/><circle cx="231" cy="262" r="28" fill="#fff"/><path d="M242.51,273.42a9.67,9.67,0,0,0,.28-4,21,21,0,0,0-1-4,30.85,30.85,0,0,0-1.67-3.88c-.64-1.27-1.21-2.48-1.71-3.65s-.94-2.6-1.34-3.93a10.68,10.68,0,0,1-.41-4.11,10.88,10.88,0,0,1,1-4,8.61,8.61,0,0,1,.51-.84.92.92,0,0,0,.14-.92.81.81,0,0,0-.6-.55.61.61,0,0,0-.69.37,1.61,1.61,0,0,0,.23-.33c.09-.15,0,0-.23.33a7.6,7.6,0,0,1-1.43,1.84c-.59.56-1.13,1.11-1.62,1.67l-1.57,1.89c-.5.59-1,1.22-1.48,1.9q-1.58,1.94-3.37,3.78c-1.2,1.23-2.33,2.5-3.38,3.79A27.39,27.39,0,0,0,222,262.1a21,21,0,0,0-1.75,3.79,20.33,20.33,0,0,0-1,4,10.79,10.79,0,0,0,.19,4,13.87,13.87,0,0,0,1.15,3.1,7.3,7.3,0,0,0,2.18,2.54,6.21,6.21,0,0,0,3.09.92,3,3,0,0,0,2.82-1.48,2.68,2.68,0,0,0,.32-2,5.49,5.49,0,0,0-.87-1.9c-.44-.61-.88-1.23-1.34-1.85a5.45,5.45,0,0,1-1-1.94,3.51,3.51,0,0,1,0-2,7.94,7.94,0,0,1,.87-2.08,13,13,0,0,1,1.39-1.94,14.37,14.37,0,0,1,1.52-1.57,5.36,5.36,0,0,0,.65,2.21c.37.68.77,1.35,1.2,2s.83,1.31,1.2,2a6.71,6.71,0,0,1,.74,2.21,7.7,7.7,0,0,1-.46,3.89,6.54,6.54,0,0,1-1.06,1.71,2,2,0,0,0-.6,1.7c.18.44.66.67,1.43.7s1.34,0,1.71,0a8.59,8.59,0,0,0,1.8-.37,7,7,0,0,0,1.62-.74,13,13,0,0,0,2.91-2.35A7.38,7.38,0,0,0,242.51,273.42Z" fill="#0096d7"/><path d="M237.06,244a1.61,1.61,0,0,0,.23-.33C237.38,243.47,237.3,243.58,237.06,244Z" fill="#0096d7"/><text transform="translate(192.61 330.84)" font-size="24" fill="#0096d7" font-family="Arial-BoldMT, Arial" font-weight="700">Natural<tspan x="0" y="28.8">Gas</tspan></text><text transform="translate(237.97 352.64) scale(0.58)" font-size="24" fill="#0096d7" font-family="Arial-BoldMT, Arial" font-weight="700">2</text><text transform="translate(192.61 388.44)" font-size="24" fill="#0096d7" font-family="ArialMT, Arial">2,588.1</text><path d="M319,538v37.63a37.63,37.63,0,0,1,0-75.25h0Z" fill="#f2f2f2"/><path d="M319,538V500.38a37.63,37.63,0,1,1,0,75.25h0Z" fill="#594620"/><circle cx="319" cy="538" r="28" fill="#fff"/><path d="M308.16,536.77h2.52a3.89,3.89,0,0,1,.49,0l.75-13.81h4.2l.86,16-4.4,1.52v-.6a1.91,1.91,0,0,0-1.9-1.9h-2.52a1.9,1.9,0,0,0-1.89,1.9v1.69h4.55v1.21h-4.55v1.39h4.55v1.21h-4.55v1.39h4.55V548h-4.55v1.4h4.55v1.2h-4.55v1.21h6.31v-3.66h11.84V544a2.7,2.7,0,0,0-2.67,2.45h-2.08a4.79,4.79,0,0,1,4.75-4.52v-1.92l-7.26,2.51.2,3.93h-4.78v-4.18l11.84-4.08v-4.35h8.52v17.91a1.25,1.25,0,0,1,1.38,1.21H303.68a1.25,1.25,0,0,1,1.38-1.21v-1.21a.6.6,0,0,1,0-1.2V548a.61.61,0,0,1,0-1.21v-1.39a.61.61,0,0,1,0-1.21v-1.39a.61.61,0,0,1,0-1.21v-1.69a3.12,3.12,0,0,1,3.1-3.11Zm23.7,15h-1.79v-2h1.79v2Zm-6.62,0h-2.71v-1.94h2.71v1.94Zm-4.78,0h-2.12v-1.94h2.12v1.94Zm9.61-12.72v-1.22h1.79v1.22Zm0,8.28v-1.22h1.79v1.22Zm-1.77-5.52v-1.22h1.77v1.22Z" fill="#7a6b4d" fill-rule="evenodd"/><text transform="translate(280.61 606.21)" font-size="24" fill="#7a6b4d" font-family="Arial-BoldMT, Arial" font-weight="700">Industrial</text><text transform="translate(388.62 599.22) scale(0.58)" font-size="24" fill="#7a6b4d" font-family="ArialMT, Arial">6</text><text transform="translate(280.61 635.01)" font-size="24" fill="#7a6b4d" font-family="ArialMT, Arial">6,534.4</text><path d="M94,262l.66-37.62a38,38,0,1,1-.66,0Z" fill="#f2f2f2"/><path d="M94,262V224.38h.66Z" fill="#333"/><circle cx="94" cy="262" r="28" fill="#fff"/><path d="M98.7,254.73,76.48,273.26s.28,2.67,3.83,4L101,257Z" fill="#ccc"/><path d="M111.52,263.16c-.58-3.15-2.83-6.55-5.41-9.57l.65-.66-3.76-3.7-.51.52a70.6,70.6,0,0,0-5.76-5l-2.85,2.95,5.58,5.16-.64.64,3.76,3.7.76-.77,8,7.3Z" fill="#333"/><polygon points="98.64 265.21 94.17 271.12 94.75 275.22 98.64 278.02 101.88 279.28 104.97 278.02 108.87 275.22 109.45 271.12 104.97 265.21 101.88 263.06 98.64 265.21" fill="#333"/><text transform="translate(55.97 330.84)" font-size="24" fill="#58595b" font-family="Arial-BoldMT, Arial"><tspan font-weight="700">Coal</tspan><tspan font-family="ArialMT, Arial"><tspan x="0" y="28.8">20.6</tspan></tspan></text><path d="M94,538l25.66-27.52a37.63,37.63,0,1,1-53.18,1.86,36.45,36.45,0,0,1,27.52-12Z" fill="#f2f2f2"/><path d="M94,538V500.38a36.05,36.05,0,0,1,25.66,10.1Z" fill="#92a753"/><circle cx="94" cy="538" r="28" fill="#fff"/><path d="M81.86,546.26h8.35v1.9H81.86v-1.9Zm-3.14,7.53h30.56a1.28,1.28,0,0,0-1.42-1.24V531.14H94v1.66H106.2v19.75H104v-4.4H101.9v4.4H100v-4.4H97.92v4.4H96v-4.4H94v4.4h-2V525.84H80.14v26.71a1.28,1.28,0,0,0-1.42,1.24Zm8.52-1.24H84.82v-2.29h2.42v2.29Zm14.5-30.34H88.18v1.65h11.9v5.44h1.66v-7.09ZM94,535.16H96v2.07H94v-2.07Zm4,0H100v2.07H97.92v-2.07Zm-4,4.37H96v2.07H94v-2.07Zm4,0H100v2.07H97.92v-2.07Zm-4,4.37H96V546H94V543.9Zm4,0H100V546H97.92V543.9Zm4-8.74H104v2.07H101.9v-2.07Zm0,4.37H104v2.07H101.9v-2.07Zm0,4.37H104V546H101.9V543.9Zm-20-2.08h8.35v1.9H81.86v-1.9Zm0-4.45h8.35v1.9H81.86v-1.9Zm0-4.44h8.35v1.9H81.86v-1.9Zm0-4.45h8.35v1.9H81.86v-1.9Z" fill="#92a753" fill-rule="evenodd"/><text transform="translate(55.97 606.21)" font-size="24" fill="#92a753" font-family="Arial-BoldMT, Arial" font-weight="700">Commercial</text><text transform="translate(193.36 599.22) scale(0.58)" font-size="24" fill="#92a753" font-family="ArialMT, Arial">7</text><text transform="translate(55.97 635.01)" font-size="24" fill="#92a753" font-family="ArialMT, Arial">1,591.0</text><path d="M384,262l5.24,37.26a37.63,37.63,0,0,1-10.48-74.52,40,40,0,0,1,5.24-.36Z" fill="#f2f2f2"/><path d="M384,262V224.38A37.62,37.62,0,0,1,421.63,262a37.09,37.09,0,0,1-32.39,37.26Z" fill="#bd732a"/><circle cx="384" cy="262" r="28" fill="#fff"/><path d="M384,252.21a41.05,41.05,0,0,0,4.26-.21,27,27,0,0,0,3.53-.56,8.26,8.26,0,0,0,2.37-.88c.56-.35.84-.71.84-1.09s-.28-.73-.84-1.08a9.14,9.14,0,0,0-2.37-.92,22.45,22.45,0,0,0-3.53-.6,43.31,43.31,0,0,0-8.52,0,21.32,21.32,0,0,0-3.49.6,9.76,9.76,0,0,0-2.37.92c-.59.35-.88.71-.88,1.08s.29.74.88,1.09a8.75,8.75,0,0,0,2.37.88,25.55,25.55,0,0,0,3.49.56A41.05,41.05,0,0,0,384,252.21Z" fill="#bd732a"/><path d="M384,263.61a41.05,41.05,0,0,0,4.26-.21,27,27,0,0,0,3.53-.56,10.44,10.44,0,0,0,2.37-.8c.56-.29.84-.63.84-1s-.32-.73-1-1.05v-7.38a20.11,20.11,0,0,1-4.62,1.2,36.9,36.9,0,0,1-5.5.4,37.73,37.73,0,0,1-5.54-.4,20.08,20.08,0,0,1-4.66-1.2v7.46c-.48.32-.72.65-.72,1s.29.71.88,1a11.19,11.19,0,0,0,2.37.8,25.55,25.55,0,0,0,3.49.56A41.05,41.05,0,0,0,384,263.61Z" fill="#bd732a"/><path d="M384,277.34a41.05,41.05,0,0,0,4.26-.21,27,27,0,0,0,3.53-.56,9.39,9.39,0,0,0,2.37-.84c.56-.32.84-.67.84-1s-.32-.73-1-1.05v-9.55a16.34,16.34,0,0,1-4.62,1.24,41.42,41.42,0,0,1-5.5.36,37.73,37.73,0,0,1-5.54-.4,19.59,19.59,0,0,1-4.66-1.2v9.63c-.48.32-.72.64-.72,1s.29.72.88,1a10,10,0,0,0,2.37.84,25.55,25.55,0,0,0,3.49.56A41.05,41.05,0,0,0,384,277.34Z" fill="#bd732a"/><text transform="translate(345.57 330.84)" font-size="24" fill="#bd732a" font-family="Arial-BoldMT, Arial" font-weight="700">Petroleum</text><text transform="translate(462.94 323.84) scale(0.58)" font-size="24" fill="#bd732a" font-family="Arial-BoldMT, Arial" font-weight="700">1</text><text transform="translate(345.57 359.64)" font-size="24" fill="#bd732a" font-family="ArialMT, Arial">6,254.0</text><path d="M541,538l25.66-27.52a37.63,37.63,0,1,1-53.18,1.86,36.76,36.76,0,0,1,27.52-12Z" fill="#f2f2f2"/><path d="M541,538V500.38a35.77,35.77,0,0,1,25.66,10.1Z" fill="#b99d66"/><circle cx="541" cy="538" r="28" fill="#fff"/><path d="M523.36,554.54h35.21a1.48,1.48,0,0,0-1.63-1.43V540.24H559l-6.67-9.64v-9.14h-4.71V526H532.85L523,540.24h2v12.87a1.48,1.48,0,0,0-1.63,1.43Zm32.18-1.43h-13V540.24h13v12.87Zm-14.45,0h-5.2v-8.58h-4.3v8.58H526.4V540.24h14.69v12.87Zm9.71-24.71V523h-1.65v3l1.65,2.4Zm-.08,20.42h-3.41v-7.14h3.41v7.14Zm-17.34-20-6.92,10h13.67Z" fill="#b99d66" fill-rule="evenodd"/><text transform="translate(502.57 606.21)" font-size="24" fill="#b99d66" font-family="Arial-BoldMT, Arial" font-weight="700">Residential</text><text transform="translate(630.61 599.22) scale(0.58)" font-size="24" fill="#b99d66" font-family="ArialMT, Arial">8</text><text transform="translate(502.57 635.01)" font-size="24" fill="#b99d66" font-family="ArialMT, Arial">1,697.3</text><path d="M567,262l4.59-37.34a37.63,37.63,0,1,1-4.59-.28Z" fill="#f2f2f2"/><path d="M567,262V224.38a33.57,33.57,0,0,1,4.59.28Z" fill="#5d9732"/><circle cx="567" cy="262" r="28" fill="#fff"/><path d="M577.5,245a9.42,9.42,0,0,0-.91.41c-.38.2-.78.41-1.19.66s-.73.45-.95.62a16.78,16.78,0,0,1-3,1.81c-1.26.6-2.56,1.19-3.9,1.76l-4,1.69a27.66,27.66,0,0,0-3.17,1.56,8.18,8.18,0,0,0-3,3.21,10.76,10.76,0,0,0-1.11,4,14.69,14.69,0,0,0,.33,4.35,25.1,25.1,0,0,0,1.32,4.2,12.78,12.78,0,0,0-.7,4.52,33.75,33.75,0,0,0,.37,4.52c0,.17.12.29.37.37s.49.15.74.21a1.47,1.47,0,0,0,.66,0,.34.34,0,0,0,.28-.33c-.11-.66-.22-1.37-.33-2.14a15.92,15.92,0,0,1-.16-2.26,7,7,0,0,1,.29-2.05,2.38,2.38,0,0,1,1.11-1.44,20.52,20.52,0,0,0,6.41,0,9.52,9.52,0,0,0,5.43-3.17A10.6,10.6,0,0,0,575,263a21.24,21.24,0,0,0,.66-4.94c0-1.69,0-3.42,0-5.18a18.48,18.48,0,0,1,.58-5.18,3.44,3.44,0,0,1,.7-1.56c.3-.33.59-.66.86-1C577.8,245,577.71,245,577.5,245Zm-9.34,12.79-1.52,1.31-1.44,1.32c-.46.44-.91.9-1.35,1.4-.22.32-.41.6-.58.82l-.49.74a1.78,1.78,0,0,1-.25.41l-.24.49a5.8,5.8,0,0,0-.42.82l-.45.95c-.14.3-.26.59-.37.86l-.45.95c-.14.3-.29.62-.45.94a4.16,4.16,0,0,0,.2-1,4.38,4.38,0,0,1,.21-1c.11-.33.2-.66.29-1s.17-.65.28-1c.06-.17.11-.33.17-.49s.11-.33.16-.5l.25-.49a.83.83,0,0,1,.12-.21.73.73,0,0,0,.13-.2,3.71,3.71,0,0,1,.57-.91,3.24,3.24,0,0,1,.58-.82,9.61,9.61,0,0,1,1.44-1.48c.52-.44,1.05-.88,1.6-1.31a5.4,5.4,0,0,1,.86-.58l.87-.5.86-.49.94-.49C569.19,256.92,568.68,257.39,568.16,257.83Z" fill="#5d9732"/><text transform="translate(528.86 330.84)" font-size="24" fill="#5d9732" font-family="Arial-BoldMT, Arial" font-weight="700" letter-spacing="-0.03em">Renewable<tspan x="0" y="28.8">Energy</tspan></text><text transform="translate(606.62 352.64) scale(0.58)" font-size="24" fill="#5d9732" font-family="ArialMT, Arial">3</text><text transform="translate(528.86 388.44)" font-size="24" fill="#5d9732" font-family="ArialMT, Arial">214.1</text><path d="M750,262l35.78,11.63a37.62,37.62,0,1,1-71.56-23.26,37,37,0,0,1,35.78-26Z" fill="#f2f2f2"/><path d="M750,262V224.38A37.62,37.62,0,0,1,787.63,262a35.66,35.66,0,0,1-1.85,11.63Z" fill="#746395"/><circle cx="750" cy="262" r="28" fill="#fff"/><polygon points="739.42 264.28 748.47 264.84 740.53 282 760.58 257.63 751.23 257.18 756.73 242 739.42 264.28" fill="#746395"/><text transform="translate(711.86 330.9)" font-size="24" fill="#746395" font-family="Arial-BoldMT, Arial" font-weight="700">Electric<tspan x="0" y="28.8">Power</tspan></text><text transform="translate(783.88 352.7) scale(0.58)" font-size="24" fill="#746395" font-family="ArialMT, Arial">4</text><text transform="translate(711.86 388.5)" font-size="24" fill="#746395" font-family="ArialMT, Arial">3,893.6</text><path d="M756,538l37.53-2.62a37.62,37.62,0,1,1-40.15-34.91c.82-.06,1.79-.09,2.62-.09Z" fill="#f2f2f2"/><path d="M756,538V500.38a37.36,37.36,0,0,1,37.53,35Z" fill="#66a0b9"/><circle cx="756" cy="538" r="28" fill="#fff"/><path d="M770.65,533.18h-1.74a.83.83,0,0,0-.7.39l-2.09-5.44h0a3.92,3.92,0,0,0-3.07-2.13H749.18a3.92,3.92,0,0,0-3.07,2.13l-2.2,5.73a.85.85,0,0,0-.82-.68h-1.74a.85.85,0,0,0-.85.85v.69a.85.85,0,0,0,.85.85h1.74a.58.58,0,0,0,.14,0,4.27,4.27,0,0,0-.89,1c-.25.48-.52.92-.52,4.19s.65,4.32,1.44,4.71l.62.34v3c0,1,.23,1.25,1.17,1.25h2.1c.94,0,1.17-.29,1.17-1.25v-3h15.59v3c0,1,.23,1.25,1.17,1.25h2.1c.94,0,1.17-.29,1.17-1.25v-3l.62-.34c.79-.39,1.44-1.53,1.44-4.71s-.27-3.71-.52-4.19a4.12,4.12,0,0,0-.86-1h1.62a.85.85,0,0,0,.85-.85V534A.85.85,0,0,0,770.65,533.18Zm-23.3,9.09a1.82,1.82,0,1,1,1.82-1.82A1.83,1.83,0,0,1,747.35,542.27Zm13.13-.7h-8.73a.27.27,0,1,1,0-.54h8.73a.27.27,0,1,1,0,.54Zm.63-.92h-10a.28.28,0,1,1,0-.54h10a.28.28,0,1,1,0,.54Zm-9.67-1.19a.29.29,0,0,1,.31-.27h8.73a.27.27,0,1,1,0,.53h-8.73A.29.29,0,0,1,751.44,539.46ZM765,542.27a1.82,1.82,0,1,1,1.82-1.82A1.82,1.82,0,0,1,765,542.27Zm2-6.76H745.25s-.52,0-.36-.51,2-5.1,2.39-6.37a2.52,2.52,0,0,1,2.28-1.37h13.11a2.52,2.52,0,0,1,2.28,1.37c.39,1.27,2.26,5.9,2.39,6.37S767,535.51,767,535.51Z" fill="#66a0b9"/><path d="M760.48,539.72a.27.27,0,1,0,0-.53h-8.73a.27.27,0,1,0,0,.53Z" fill="#fff"/><path d="M761.11,540.11h-10a.28.28,0,1,0,0,.54h10a.28.28,0,1,0,0-.54Z" fill="#fff"/><path d="M760.48,541h-8.73a.27.27,0,1,0,0,.54h8.73a.27.27,0,1,0,0-.54Z" fill="#fff"/><text transform="translate(717.86 606.21)" font-size="24" fill="#66a0b9" font-family="Arial-BoldMT, Arial" font-weight="700"><tspan letter-spacing="-0.06em">T</tspan><tspan x="13.34" y="0">ransportation</tspan></text><text transform="translate(885.87 599.22) scale(0.58)" font-size="24" fill="#66a0b9" font-family="ArialMT, Arial">5</text><text transform="translate(717.86 635.01)" font-size="24" fill="#66a0b9" font-family="ArialMT, Arial">3,147.8</text><text transform="translate(55.97 75.93)" font-size="48" fill="#58595b" font-family="Arial-BoldMT, Arial" font-weight="700"><tspan letter-spacing="-0.07em">T</tspan><tspan x="25.76" y="0">exas</tspan></text><text transform="translate(55.97 113.04)" font-size="21" fill="#58595b" font-family="Arial-BoldMT, Arial" font-weight="700">End-use energy consumption 2015, estimates</text><text transform="translate(55.97 450.04)" font-size="21" fill="#58595b" font-family="Arial-BoldMT, Arial"><tspan font-weight="700">Consumption by sector</tspan><tspan font-size="18" font-family="ArialMT, Arial"><tspan x="0" y="21.6">trillion British thermal units (tBtu) and percent of total for all sectors</tspan></tspan></text><text transform="translate(55.97 171.04)" font-size="21" fill="#58595b" font-family="Arial-BoldMT, Arial"><tspan font-weight="700">Consumption by source</tspan><tspan font-size="18" font-family="ArialMT, Arial"><tspan x="0" y="21.6">trillion British thermal units (tBtu) and percent of total for all sources</tspan></tspan></text><line x1="34" y1="416.5" x2="927" y2="416.5" fill="none" stroke="#ccc" stroke-miterlimit="10" stroke-width="3"/><line x1="308.5" y1="393.39" x2="308.5" y2="217.08" fill="none" stroke="#ccc" stroke-miterlimit="10"/><line x1="462.5" y1="646" x2="462.5" y2="493" fill="none" stroke="#ccc" stroke-miterlimit="10"/><line x1="496.5" y1="393.39" x2="496.5" y2="217.08" fill="none" stroke="#ccc" stroke-miterlimit="10"/><line x1="677.5" y1="398" x2="677.5" y2="221.69" fill="none" stroke="#ccc" stroke-miterlimit="10"/><line x1="672.5" y1="646" x2="672.5" y2="493" fill="none" stroke="#ccc" stroke-miterlimit="10"/><line x1="157.5" y1="392.81" x2="157.5" y2="216.5" fill="none" stroke="#ccc" stroke-miterlimit="10"/><line x1="240.5" y1="646" x2="240.5" y2="493" fill="none" stroke="#ccc" stroke-miterlimit="10"/></svg>