<svg id="Layer_1" data-name="Layer 1" xmlns="http://www.w3.org/2000/svg" viewBox="0 0 960 687"><title>1DF-consumption-sector</title><line x1="34" y1="137.5" x2="927" y2="137.5" fill="none" stroke="#c6c6c6" stroke-miterlimit="10" stroke-width="3"/><path d="M231,262l23.68-29.24a37.63,37.63,0,1,1-52.92,5.56A36.79,36.79,0,0,1,231,224.38Z" fill="#f1f1f1"/><path d="M231,262V224.38a35.63,35.63,0,0,1,23.68,8.38Z" fill="#383838"/><circle cx="231" cy="262" r="28" fill="#fff"/><path d="M242.58,273.35a9.53,9.53,0,0,0,.25-4,20.43,20.43,0,0,0-1-4,30,30,0,0,0-1.69-3.87c-.65-1.26-1.23-2.47-1.73-3.64s-1-2.59-1.37-3.92a11.81,11.81,0,0,1,.55-8.09,6.48,6.48,0,0,1,.51-.83,1,1,0,0,0,.13-.93.86.86,0,0,0-.61-.55c-.27-.06-.5.07-.69.38a1.61,1.61,0,0,0,.23-.33c.09-.15,0,0-.23.33a7.19,7.19,0,0,1-1.42,1.85c-.58.56-1.11,1.12-1.6,1.68s-1.07,1.31-1.56,1.9-1,1.23-1.47,1.91c-1,1.3-2.15,2.57-3.35,3.8s-2.31,2.51-3.35,3.81a27.58,27.58,0,0,0-2.24,3.3,20.7,20.7,0,0,0-1.73,3.8,21.14,21.14,0,0,0-.95,4,11,11,0,0,0,.21,4,13.73,13.73,0,0,0,1.18,3.09,7.21,7.21,0,0,0,2.19,2.53,6.14,6.14,0,0,0,3.1.9,3,3,0,0,0,2.81-1.49,2.8,2.8,0,0,0,.31-2,5.61,5.61,0,0,0-.89-1.89c-.44-.61-.89-1.23-1.35-1.84a5.63,5.63,0,0,1-1-1.93,3.73,3.73,0,0,1,0-2,7.94,7.94,0,0,1,.87-2.08,13.46,13.46,0,0,1,1.37-1.95,14.51,14.51,0,0,1,1.51-1.58,5.38,5.38,0,0,0,.67,2.21,22.29,22.29,0,0,0,1.21,2c.43.64.84,1.3,1.21,2a6.66,6.66,0,0,1,.76,2.21A7.8,7.8,0,0,1,233,276a6.46,6.46,0,0,1-1.05,1.71,2,2,0,0,0-.59,1.71c.18.43.66.66,1.43.69s1.34,0,1.71,0a8.35,8.35,0,0,0,1.8-.38,7,7,0,0,0,1.61-.75,12.89,12.89,0,0,0,2.9-2.37A7.33,7.33,0,0,0,242.58,273.35Z" fill="#383838"/><path d="M236.94,243.91a1.61,1.61,0,0,0,.23-.33C237.26,243.43,237.19,243.54,236.94,243.91Z" fill="#383838"/><text transform="translate(192.61 330.84)" font-size="24" fill="#383838" font-family="Arial-BoldMT, Arial" font-weight="700">Natural<tspan x="0" y="28.8">Gas</tspan></text><text transform="translate(237.97 352.64) scale(0.58)" font-size="24" fill="#383838" font-family="Arial-BoldMT, Arial" font-weight="700">2</text><text transform="translate(192.61 388.44)" font-size="24" fill="#383838" font-family="ArialMT, Arial">999.9</text><path d="M319,538l34.89-14.09a37.63,37.63,0,1,1-49-20.8A36.56,36.56,0,0,1,319,500.38Z" fill="#f1f1f1"/><path d="M319,538V500.38a36.73,36.73,0,0,1,34.89,23.53Z"/><circle cx="319" cy="538" r="28" fill="#fff"/><path d="M308.16,536.77h2.52a3.89,3.89,0,0,1,.49,0l.75-13.81h4.2l.86,16-4.4,1.52v-.6a1.91,1.91,0,0,0-1.9-1.9h-2.52a1.9,1.9,0,0,0-1.89,1.9v1.69h4.55v1.21h-4.55v1.39h4.55v1.21h-4.55v1.39h4.55V548h-4.55v1.4h4.55v1.2h-4.55v1.21h6.31v-3.66h11.84V544a2.7,2.7,0,0,0-2.67,2.45h-2.08a4.79,4.79,0,0,1,4.75-4.52v-1.92l-7.26,2.51.2,3.93h-4.78v-4.18l11.84-4.08v-4.35h8.52v17.91a1.25,1.25,0,0,1,1.38,1.21H303.68a1.25,1.25,0,0,1,1.38-1.21v-1.21a.6.6,0,0,1,0-1.2V548a.61.61,0,0,1,0-1.21v-1.39a.61.61,0,0,1,0-1.21v-1.39a.61.61,0,0,1,0-1.21v-1.69a3.12,3.12,0,0,1,3.1-3.11Zm23.7,15h-1.79v-2h1.79v2Zm-6.62,0h-2.71v-1.94h2.71v1.94Zm-4.78,0h-2.12v-1.94h2.12v1.94Zm9.61-12.72v-1.22h1.79v1.22Zm0,8.28v-1.22h1.79v1.22Zm-1.77-5.52v-1.22h1.77v1.22Z" fill="#333" fill-rule="evenodd"/><text transform="translate(280.61 606.21)" font-size="24" fill="#333" font-family="Arial-BoldMT, Arial" font-weight="700">Industrial</text><text transform="translate(388.62 599.22) scale(0.58)" font-size="24" fill="#333" font-family="ArialMT, Arial">6</text><text transform="translate(280.61 635.01)" font-size="24" fill="#333" font-family="ArialMT, Arial">999.9</text><path d="M94,262l4.59-37.34a37.63,37.63,0,1,1-4.59-.28Z" fill="#f1f1f1"/><path d="M94,262V224.38a33.57,33.57,0,0,1,4.59.28Z" fill="#1a1a1a"/><circle cx="93.88" cy="261.99" r="28" fill="#fff"/><path d="M98.54,254.68l-22.1,18.68s.29,2.66,3.85,3.95l20.52-20.42Z" fill="#c6c6c6"/><path d="M111.41,263c-.59-3.15-2.87-6.54-5.47-9.54l.65-.66-3.78-3.68-.51.52a74.64,74.64,0,0,0-5.79-5l-2.84,3,5.62,5.12-.64.65,3.78,3.68.77-.79c4.5,4.09,8,7.26,8,7.26Z" fill="#1a1a1a"/><polygon points="98.55 265.16 94.11 271.11 94.71 275.2 98.63 277.97 101.87 279.22 104.96 277.93 108.84 275.12 109.39 271.01 104.88 265.13 101.77 262.99 98.55 265.16" fill="#1a1a1a"/><text transform="translate(56.03 330.88) rotate(-0.17)" font-size="24" fill="#464646" font-family="Arial-BoldMT, Arial"><tspan font-weight="700">Coal</tspan><tspan font-family="ArialMT, Arial"><tspan x="0" y="28.8">999.9</tspan></tspan></text><path d="M94,538l37.57,2A37.62,37.62,0,1,1,94,500.38Z" fill="#f1f1f1"/><path d="M94,538V500.38A37.62,37.62,0,0,1,131.63,538c0,.83,0,1.14-.06,2Z" fill="#707070"/><circle cx="94" cy="538" r="28" fill="#fff"/><path d="M81.86,546.26h8.35v1.9H81.86v-1.9Zm-3.14,7.53h30.56a1.28,1.28,0,0,0-1.42-1.24V531.14H94v1.66H106.2v19.75H104v-4.4H101.9v4.4H100v-4.4H97.92v4.4H96v-4.4H94v4.4h-2V525.84H80.14v26.71a1.28,1.28,0,0,0-1.42,1.24Zm8.52-1.24H84.82v-2.29h2.42v2.29Zm14.5-30.34H88.18v1.65h11.9v5.44h1.66v-7.09ZM94,535.16H96v2.07H94v-2.07Zm4,0H100v2.07H97.92v-2.07Zm-4,4.37H96v2.07H94v-2.07Zm4,0H100v2.07H97.92v-2.07Zm-4,4.37H96V546H94V543.9Zm4,0H100V546H97.92V543.9Zm4-8.74H104v2.07H101.9v-2.07Zm0,4.37H104v2.07H101.9v-2.07Zm0,4.37H104V546H101.9V543.9Zm-20-2.08h8.35v1.9H81.86v-1.9Zm0-4.45h8.35v1.9H81.86v-1.9Zm0-4.44h8.35v1.9H81.86v-1.9Zm0-4.45h8.35v1.9H81.86v-1.9Z" fill="#707070" fill-rule="evenodd"/><text transform="translate(55.97 606.21)" font-size="24" fill="#707070" font-family="Arial-BoldMT, Arial" font-weight="700">Commercial</text><text transform="translate(193.36 599.22) scale(0.58)" font-size="24" fill="#707070" font-family="ArialMT, Arial">7</text><text transform="translate(55.97 635.01)" font-size="24" fill="#707070" font-family="ArialMT, Arial">999.9</text><path d="M384,262l34.1,15.9a37.62,37.62,0,1,1-68.2-31.8A36.9,36.9,0,0,1,384,224.38Z" fill="#f1f1f1"/><path d="M384,262V224.38A37.62,37.62,0,0,1,421.62,262a35.54,35.54,0,0,1-3.52,15.9Z" fill="#4f4f4f"/><circle cx="384" cy="262" r="28" fill="#fff"/><path d="M384,252.21a41.05,41.05,0,0,0,4.26-.21,27,27,0,0,0,3.53-.56,8.26,8.26,0,0,0,2.37-.88c.56-.35.84-.71.84-1.09s-.28-.73-.84-1.08a9.14,9.14,0,0,0-2.37-.92,22.45,22.45,0,0,0-3.53-.6,43.31,43.31,0,0,0-8.52,0,21.32,21.32,0,0,0-3.49.6,9.76,9.76,0,0,0-2.37.92c-.59.35-.88.71-.88,1.08s.29.74.88,1.09a8.75,8.75,0,0,0,2.37.88,25.55,25.55,0,0,0,3.49.56A41.05,41.05,0,0,0,384,252.21Z" fill="#4f4f4f"/><path d="M384,263.61a41.05,41.05,0,0,0,4.26-.21,27,27,0,0,0,3.53-.56,10.44,10.44,0,0,0,2.37-.8c.56-.29.84-.63.84-1s-.32-.73-1-1.05v-7.38a20.11,20.11,0,0,1-4.62,1.2,36.9,36.9,0,0,1-5.5.4,37.73,37.73,0,0,1-5.54-.4,20.08,20.08,0,0,1-4.66-1.2v7.46c-.48.32-.72.65-.72,1s.29.71.88,1a11.19,11.19,0,0,0,2.37.8,25.55,25.55,0,0,0,3.49.56A41.05,41.05,0,0,0,384,263.61Z" fill="#4f4f4f"/><path d="M384,277.34a41.05,41.05,0,0,0,4.26-.21,27,27,0,0,0,3.53-.56,9.39,9.39,0,0,0,2.37-.84c.56-.32.84-.67.84-1s-.32-.73-1-1.05v-9.55a16.34,16.34,0,0,1-4.62,1.24,41.42,41.42,0,0,1-5.5.36,37.73,37.73,0,0,1-5.54-.4,19.59,19.59,0,0,1-4.66-1.2v9.63c-.48.32-.72.64-.72,1s.29.72.88,1a10,10,0,0,0,2.37.84,25.55,25.55,0,0,0,3.49.56A41.05,41.05,0,0,0,384,277.34Z" fill="#4f4f4f"/><text transform="translate(345.57 330.84)" font-size="24" fill="#4f4f4f" font-family="Arial-BoldMT, Arial" font-weight="700">Petroleum</text><text transform="translate(462.94 323.84) scale(0.58)" font-size="24" fill="#4f4f4f" font-family="Arial-BoldMT, Arial" font-weight="700">1</text><text transform="translate(345.57 359.64)" font-size="24" fill="#4f4f4f" font-family="ArialMT, Arial">999.9</text><path d="M541,538l37.57,2A37.62,37.62,0,1,1,541,500.38Z" fill="#f1f1f1"/><path d="M541,538V500.38A37.62,37.62,0,0,1,578.62,538c0,.83,0,1.14,0,2Z" fill="#7a7a7a"/><circle cx="541" cy="538" r="28" fill="#fff"/><path d="M523.36,554.54h35.21a1.48,1.48,0,0,0-1.63-1.43V540.24H559l-6.67-9.64v-9.14h-4.71V526H532.85L523,540.24h2v12.87a1.48,1.48,0,0,0-1.63,1.43Zm32.18-1.43h-13V540.24h13v12.87Zm-14.45,0h-5.2v-8.58h-4.3v8.58H526.4V540.24h14.69v12.87Zm9.71-24.71V523h-1.65v3l1.65,2.4Zm-.08,20.42h-3.41v-7.14h3.41v7.14Zm-17.34-20-6.92,10h13.67Z" fill="#7a7a7a" fill-rule="evenodd"/><text transform="translate(502.57 606.21)" font-size="24" fill="#7a7a7a" font-family="Arial-BoldMT, Arial" font-weight="700">Residential</text><text transform="translate(630.61 599.22) scale(0.58)" font-size="24" fill="#7a7a7a" font-family="ArialMT, Arial">8</text><text transform="translate(502.57 635.01)" font-size="24" fill="#7a7a7a" font-family="ArialMT, Arial">999.9</text><path d="M567,262l11.63-35.78a37.62,37.62,0,1,1-47.41,24.15,37,37,0,0,1,35.78-26Z" fill="#f1f1f1"/><path d="M567,262V224.38a35.65,35.65,0,0,1,11.63,1.84Z" fill="#474747"/><circle cx="567" cy="262" r="28" fill="#fff"/><path d="M577.5,245a9.42,9.42,0,0,0-.91.41c-.38.2-.78.41-1.19.66s-.73.45-.95.62a16.78,16.78,0,0,1-3,1.81c-1.26.6-2.56,1.19-3.9,1.76l-4,1.69a27.66,27.66,0,0,0-3.17,1.56,8.18,8.18,0,0,0-3,3.21,10.76,10.76,0,0,0-1.11,4,14.69,14.69,0,0,0,.33,4.35,25.1,25.1,0,0,0,1.32,4.2,12.78,12.78,0,0,0-.7,4.52,33.75,33.75,0,0,0,.37,4.52c0,.17.12.29.37.37s.49.15.74.21a1.47,1.47,0,0,0,.66,0,.34.34,0,0,0,.28-.33c-.11-.66-.22-1.37-.33-2.14a15.92,15.92,0,0,1-.16-2.26,7,7,0,0,1,.29-2.05,2.38,2.38,0,0,1,1.11-1.44,20.52,20.52,0,0,0,6.41,0,9.52,9.52,0,0,0,5.43-3.17A10.6,10.6,0,0,0,575,263a21.24,21.24,0,0,0,.66-4.94c0-1.69,0-3.42,0-5.18a18.48,18.48,0,0,1,.58-5.18,3.44,3.44,0,0,1,.7-1.56c.3-.33.59-.66.86-1C577.8,245,577.71,245,577.5,245Zm-9.34,12.79-1.52,1.31-1.44,1.32c-.46.44-.91.9-1.35,1.4-.22.32-.41.6-.58.82l-.49.74a1.78,1.78,0,0,1-.25.41l-.24.49a5.8,5.8,0,0,0-.42.82l-.45.95c-.14.3-.26.59-.37.86l-.45.95c-.14.3-.29.62-.45.94a4.16,4.16,0,0,0,.2-1,4.38,4.38,0,0,1,.21-1c.11-.33.2-.66.29-1s.17-.65.28-1c.06-.17.11-.33.17-.49s.11-.33.16-.5l.25-.49a.83.83,0,0,1,.12-.21.73.73,0,0,0,.13-.2,3.71,3.71,0,0,1,.57-.91,3.24,3.24,0,0,1,.58-.82,9.61,9.61,0,0,1,1.44-1.48c.52-.44,1.05-.88,1.6-1.31a5.4,5.4,0,0,1,.86-.58l.87-.5.86-.49.94-.49C569.19,256.92,568.68,257.39,568.16,257.83Z" fill="#474747"/><text transform="translate(528.86 330.84)" font-size="24" fill="#474747" font-family="Arial-BoldMT, Arial" font-weight="700" letter-spacing="-0.03em">Renewable<tspan x="0" y="28.8">Energy</tspan></text><text transform="translate(606.62 352.64) scale(0.58)" font-size="24" fill="#474747" font-family="ArialMT, Arial">3</text><text transform="translate(528.86 388.44)" font-size="24" fill="#474747" font-family="ArialMT, Arial">999.9</text><path d="M750,262l2.62,37.53a37.62,37.62,0,1,1-5.24-75.06c.82-.06,1.79-.09,2.62-.09Z" fill="#f1f1f1"/><path d="M750,262V224.38a37.62,37.62,0,0,1,2.62,75.15Z" fill="#363636"/><circle cx="750" cy="262" r="28" fill="#fff"/><polygon points="739.42 264.28 748.47 264.84 740.53 282 760.58 257.63 751.23 257.18 756.73 242 739.42 264.28" fill="#363636"/><text transform="translate(711.86 330.9)" font-size="24" fill="#363636" font-family="Arial-BoldMT, Arial" font-weight="700">Electric<tspan x="0" y="28.8">Power</tspan></text><text transform="translate(783.88 352.7) scale(0.58)" font-size="24" fill="#363636" font-family="ArialMT, Arial">4</text><text transform="translate(711.86 388.5)" font-size="24" fill="#363636" font-family="ArialMT, Arial">9,999.9</text><path d="M756,538l36.51,9.1A37.63,37.63,0,1,1,756,500.38Z" fill="#f1f1f1"/><path d="M756,538V500.38A37.62,37.62,0,0,1,793.62,538a34.9,34.9,0,0,1-1.11,9.1Z" fill="#666"/><circle cx="756" cy="538" r="28" fill="#fff"/><path d="M770.65,533.18h-1.74a.83.83,0,0,0-.7.39l-2.09-5.44h0a3.92,3.92,0,0,0-3.07-2.13H749.18a3.92,3.92,0,0,0-3.07,2.13l-2.2,5.73a.85.85,0,0,0-.82-.68h-1.74a.85.85,0,0,0-.85.85v.69a.85.85,0,0,0,.85.85h1.74a.58.58,0,0,0,.14,0,4.27,4.27,0,0,0-.89,1c-.25.48-.52.92-.52,4.19s.65,4.32,1.44,4.71l.62.34v3c0,1,.23,1.25,1.17,1.25h2.1c.94,0,1.17-.29,1.17-1.25v-3h15.59v3c0,1,.23,1.25,1.17,1.25h2.1c.94,0,1.17-.29,1.17-1.25v-3l.62-.34c.79-.39,1.44-1.53,1.44-4.71s-.27-3.71-.52-4.19a4.12,4.12,0,0,0-.86-1h1.62a.85.85,0,0,0,.85-.85V534A.85.85,0,0,0,770.65,533.18Zm-23.3,9.09a1.82,1.82,0,1,1,1.82-1.82A1.83,1.83,0,0,1,747.35,542.27Zm13.13-.7h-8.73a.27.27,0,1,1,0-.54h8.73a.27.27,0,1,1,0,.54Zm.63-.92h-10a.28.28,0,1,1,0-.54h10a.28.28,0,1,1,0,.54Zm-9.67-1.19a.29.29,0,0,1,.31-.27h8.73a.27.27,0,1,1,0,.53h-8.73A.29.29,0,0,1,751.44,539.46ZM765,542.27a1.82,1.82,0,1,1,1.82-1.82A1.82,1.82,0,0,1,765,542.27Zm2-6.76H745.25s-.52,0-.36-.51,2-5.1,2.39-6.37a2.52,2.52,0,0,1,2.28-1.37h13.11a2.52,2.52,0,0,1,2.28,1.37c.39,1.27,2.26,5.9,2.39,6.37S767,535.51,767,535.51Z" fill="#666"/><path d="M760.48,539.72a.27.27,0,1,0,0-.53h-8.73a.27.27,0,1,0,0,.53Z" fill="#fff"/><path d="M761.11,540.11h-10a.28.28,0,1,0,0,.54h10a.28.28,0,1,0,0-.54Z" fill="#fff"/><path d="M760.48,541h-8.73a.27.27,0,1,0,0,.54h8.73a.27.27,0,1,0,0-.54Z" fill="#fff"/><text transform="translate(717.86 606.21)" font-size="24" fill="#666" font-family="Arial-BoldMT, Arial" font-weight="700"><tspan letter-spacing="-0.06em">T</tspan><tspan x="13.34" y="0">ransportation</tspan></text><text transform="translate(885.87 599.22) scale(0.58)" font-size="24" fill="#666" font-family="ArialMT, Arial">5</text><text transform="translate(717.86 635.01)" font-size="24" fill="#666" font-family="ArialMT, Arial">999.9</text><text transform="translate(55.97 75.93)" font-size="48" fill="#464646" font-family="Arial-BoldMT, Arial" font-weight="700">State</text><text transform="translate(55.97 113.04)" font-size="21" fill="#464646" font-family="Arial-BoldMT, Arial" font-weight="700">End-use energy consumption 2015, estimates</text><text transform="translate(55.97 450.04)" font-size="21" fill="#464646" font-family="Arial-BoldMT, Arial"><tspan font-weight="700">Consumption by sector</tspan><tspan font-size="18" font-family="ArialMT, Arial"><tspan x="0" y="21.6">trillion British thermal units (tBtu) and percent of total for all sectors</tspan></tspan></text><text transform="translate(55.97 171.04)" font-size="21" fill="#464646" font-family="Arial-BoldMT, Arial"><tspan font-weight="700">Consumption by source</tspan><tspan font-size="18" font-family="ArialMT, Arial"><tspan x="0" y="21.6">trillion British thermal units (tBtu) and percent of total for all sources</tspan></tspan></text><line x1="34" y1="416.5" x2="927" y2="416.5" fill="none" stroke="#c6c6c6" stroke-miterlimit="10" stroke-width="3"/><line x1="308.5" y1="393.39" x2="308.5" y2="217.08" fill="none" stroke="#c6c6c6" stroke-miterlimit="10"/><line x1="462.5" y1="646" x2="462.5" y2="493" fill="none" stroke="#c6c6c6" stroke-miterlimit="10"/><line x1="496.5" y1="393.39" x2="496.5" y2="217.08" fill="none" stroke="#c6c6c6" stroke-miterlimit="10"/><line x1="677.5" y1="398" x2="677.5" y2="221.69" fill="none" stroke="#c6c6c6" stroke-miterlimit="10"/><line x1="672.5" y1="646" x2="672.5" y2="493" fill="none" stroke="#c6c6c6" stroke-miterlimit="10"/><line x1="157.5" y1="392.81" x2="157.5" y2="216.5" fill="none" stroke="#c6c6c6" stroke-miterlimit="10"/><line x1="240.5" y1="646" x2="240.5" y2="493" fill="none" stroke="#c6c6c6" stroke-miterlimit="10"/><polygon points="687.02 169.17 697.96 163.98 699.55 161.13 705.2 156.76 705.67 154.25 706.8 152.01 709.83 150.57 709.83 147.27 714.39 143.66 729.97 129.59 731.87 124.84 737.94 127.45 736.24 131.1 739.51 134.37 745.76 137.07 747.97 137.07 750.24 135.05 750.87 133.15 755.6 129.87 759.7 133.15 759.97 133.26 761.36 132.91 768.26 130.51 769.55 124.48 773.39 124.48 774.17 125.27 780.25 119.72 782.25 120.72 785.48 116.46 784.67 114.85 785.41 108.8 790.91 98.39 798.5 69.89 802.22 69.89 808.34 73.23 808.34 75.4 808.84 75.78 810.75 75.52 812.4 72.06 815.55 61.63 819.12 56.28 822.36 57.3 824.31 52.25 827.27 51.56 828.84 49.61 831.22 44.06 831.96 43.31 830.72 42.57 831.47 32.54 833.54 29.88 836.39 27.98 851.92 37.84 853.49 30.85 858.07 29.7 861.89 31.14 867.97 33.57 864.91 37.4 866.15 38.72 872.85 38.72 875.73 42.27 879.74 43.98 884.14 48.93 883.07 52.49 878.75 59.74 876.73 64.97 876.98 66.99 878.89 66.99 884.03 63.8 888.93 68.71 890.34 69.64 891.52 70.23 893.89 71.88 894.13 71.96 895.49 71.05 898.03 71.05 906.21 75.44 912.32 76.75 915.59 81.93 915.59 85.07 913.55 86.6 914.66 91.78 913.62 92.82 916.68 94.57 919.27 99.23 919.27 102.57 917.23 105.66 915.59 105.45 915.59 108.59 919.49 110.44 922.53 114 921.15 115.31 925.15 115.95 931.37 115.2 932.85 118.11 936.81 131.11 933.66 134.52 934.37 136.66 849.47 152.68 763.04 167.31 761.29 166.72 758.22 167.21 745.28 168.89 745.78 167.41 742.9 167.97 742.9 168.7 677.07 176.67 687.02 169.17" fill="#fff" fill-rule="evenodd"/><path d="M836.42,31l14.33,9.1,2.32,1.16.78-.58,1.74-7.74,2.33-.58L861,33.48l2.91,1.16-2.33,2.9,3.49,3.68h6.58l2.52,3.1,4.06,1.74,3.1,3.49-.58,1.93-4.26,7.17-2.32,6,.58,4.84h4.84L883.67,67l3.67,3.68,1.74,1.16,1.16.58,2.52,1.74,1.74.58,1.75-1.16h1.16l7.93,4.26L910.76,79l2.33,3.68v1.17l-2.33,1.74L911.93,91l-1.17,1.16-1.35,1.16,5.42,3.1,1.94,3.48v1.94L916,103l-4.65-.58-.59,1.74,1.75,1.75.58-.59v1.94l-2.33,1.16h-1.35l-.58.58,1.93,1.16,3.49.58,3.68,1.75,1.16,1.35-4.26,4.07h-1.74l-4.26-1.75v1.75l2.52,1.93,3.48,2.33,3.1-1.16,3.49-3.1,3.68.58,4.83-.58.59,1.16L934,130.47,931.67,133h-1.15l.58,1.74L849,150.22l-85.76,14.52-1.75-.59-3.68.59-8.9,1.16.58-1.75-9.1,1.75v.58L686,173.07l2.32-1.75,11.43-5.42,1.74-3.1,6-4.64.59-3.1.58-1.16,3.68-1.75v-3.67l3.68-2.91,16.06-14.52,1.17-2.9,1.35.58-1.35,2.9,4.84,4.84,7.16,3.1h3.68l3.48-3.1.58-1.74L755.5,133l2.9,2.32,1.36.58,2.32-.58,8.33-2.91,1.16-5.42h.78l1.74,1.75,6.58-6,2.32,1.16,5.42-7.16-1.16-2.33.58-4.84,5.42-10.26,7.17-26.91h1.16l4.26,2.32v1.94l2.32,1.74,4.26-.58L814.74,73l3.1-10.26,2.32-3.48,3.68,1.16,2.32-6,2.52-.58L831,50.9l2.33-5.42,1.15-1.16.78-1.94-1.93-1.16.58-7.74,1.35-1.75,1.16-.77m-.06-6-2.71,1.8-1.16.78-.67.44-.5.64L830,30.4,829,31.6l-.11,1.51-.58,7.74-.22,3.07.35.21-1.8,4.18-.81,1-.82.19-2.58.6-1,2.47-.63,1.63-2.79-.88L816,56.45l-2.32,3.49-.41.61-.22.72-3,9.89-.06.13-1.77-1L804,68l-1.11-.61h-6.29l-1,3.71-7,26.37-5.15,9.76L783,108l-.11.92-.59,4.84-.18,1.49.45.9-1,1.37-1.67-.84L777.3,119l-3.24,3h-6.53l-.85,4-.57,2.68-5.46,1.9-.18.05-1.85-1.48-2.91-2.33-3.06,2.13-2.52,1.74-1.37,1-.53,1.58-.15.47-1.06.94h-.74l-5.34-2.31-1.69-1.69,2-4.4-4.72-2-1.36-.59-4.71-2-1.91,4.76-.73,1.83-15.08,13.63-3.55,2.8-1.9,1.51V149l-.83.39-1.55.74-.77,1.54-.58,1.15-.32.63-.13.69-.23,1.24-4.49,3.48-.81.62-.49.88-1,1.71-10,4.74-.46.22-.4.31L683,169.07l-14.85,11.2L686.6,178l54.4-6.58.83-.1-.18.54,7.91-1,8.91-1.16h.14l2.46-.39.58.19,1.19.4,1.24-.21,85.76-14.52h.09L932,139.65l5.61-1.06-1.14-3.45,1.18-1.28,2-2.1-.84-2.75-3.48-11.42-.12-.42-.2-.39-.59-1.15-1.58-3.13-3.48.42-4,.49-2.42-2.83-1.15-1.36-.7-.81-1-.46-1-.49,1.14-1.72.77-1.16.83-1.26V98.58l-.63-1.13L919.2,94l-.67-1.22-1.22-.69,0,0-.45-2.1-.49-2.29,1.76-1.32V81.2L917.32,80,915,76.3l-1.12-1.78-2.06-.44-4.73-1-7.31-3.92-1.11-.6h-3.92l-.64.43-1-.7-.29-.2-.32-.16-.88-.44-1.07-.72-3.33-3.32-2.8-2.81L881,62.72l-1,.61,1-2.49,4-6.8.31-.53.18-.59.58-1.93.81-2.68-1.86-2.09L882,42.74l-.74-.83-1-.44-2.93-1.26-1.74-2.14L874,36.22h-5l3-3.72L865.77,30l-2.9-1.17,0,0h-.05l-3.1-1.16-1.45-.55-1.51.38-2.33.58-3,.74-.68,3-.45,2L839.1,26.74,836.36,25Z" fill="#fff"/><polygon points="883.66 66.97 879.6 69.49 874.76 69.49 874.18 64.65 876.5 58.65 880.76 51.48 881.34 49.55 878.24 46.06 874.18 44.32 871.66 41.22 865.08 41.22 861.59 37.54 863.92 34.64 861.01 33.48 857.92 32.32 855.59 32.9 853.85 40.64 853.07 41.22 850.75 40.06 836.42 30.96 835.26 31.73 833.91 33.48 833.33 41.22 835.26 42.38 834.48 44.32 833.33 45.48 831 50.9 828.68 53.81 826.16 54.38 823.84 60.39 820.16 59.23 817.84 62.71 814.74 72.97 812.42 77.81 808.16 78.39 805.84 76.65 805.84 74.71 801.58 72.39 800.42 72.39 793.25 99.3 787.83 109.56 787.25 114.4 788.41 116.73 782.99 123.89 780.67 122.73 774.09 128.73 772.35 126.98 771.57 126.98 770.41 132.4 762.08 135.31 759.76 135.89 758.4 135.31 755.5 132.99 752.98 134.73 752.4 136.47 748.92 139.57 745.24 139.57 738.08 136.47 733.24 131.63 734.59 128.73 733.24 128.15 732.07 131.05 716.01 145.57 712.33 148.48 712.33 152.15 708.65 153.9 708.07 155.06 707.48 158.16 701.49 162.8 699.75 165.9 688.32 171.32 686 173.07 740.4 166.48 740.4 165.9 749.5 164.15 748.92 165.9 757.83 164.74 761.5 164.15 763.25 164.74 849 150.22 931.1 134.73 930.52 132.99 931.67 132.99 934 130.47 930.52 119.05 929.93 117.89 925.1 118.47 921.42 117.89 917.93 120.99 914.83 122.15 911.35 119.82 908.83 117.89 908.83 116.14 913.09 117.89 914.83 117.89 919.09 113.83 917.93 112.47 914.25 110.72 910.76 110.14 908.83 108.98 909.41 108.4 910.76 108.4 913.09 107.24 913.09 105.3 912.51 105.89 910.76 104.14 911.35 102.39 916 102.98 916.77 101.82 916.77 99.88 914.83 96.4 909.41 93.3 910.76 92.14 911.93 90.98 910.76 85.56 913.09 83.81 913.09 82.65 910.76 78.97 905.34 77.81 897.41 73.55 896.25 73.55 894.5 74.71 892.76 74.14 890.24 72.39 889.08 71.81 887.34 70.65 883.66 66.97" fill="none" stroke="#666" stroke-miterlimit="10" stroke-width="2"/></svg>